
        <svg xmlns="http://www.w3.org/2000/svg" xmlns:xlink="http://www.w3.org/1999/xlink" version="1.1" width="3164.383561643836" height="793.3065807404578" viewBox="0 0 3164.383561643836 793.3065807404578">
			
			<g transform="scale(8.219178082191782) translate(10, 10)">
				<defs id="SvgjsDefs8314"><linearGradient id="SvgjsLinearGradient8321"><stop id="SvgjsStop8322" stop-color="#8f5e25" offset="0"/><stop id="SvgjsStop8323" stop-color="#fbf4a1" offset="0.5"/><stop id="SvgjsStop8324" stop-color="#8f5e25" offset="1"/></linearGradient><linearGradient id="SvgjsLinearGradient8325"><stop id="SvgjsStop8326" stop-color="#8f5e25" offset="0"/><stop id="SvgjsStop8327" stop-color="#fbf4a1" offset="0.5"/><stop id="SvgjsStop8328" stop-color="#8f5e25" offset="1"/></linearGradient><linearGradient id="SvgjsLinearGradient8329"><stop id="SvgjsStop8330" stop-color="#b88746" offset="0"/><stop id="SvgjsStop8331" stop-color="#fdf5a6" offset="1"/></linearGradient></defs><g id="SvgjsG8315" featureKey="symbolFeature-0" transform="matrix(1.5174507062766416,0,0,1.5174507062766416,-0.07284393191446403,0)" fill="#fff">    <title xmlns="http://www.w3.org/2000/svg">Shape 5</title>    <g xmlns="http://www.w3.org/2000/svg" id="Page-1" stroke="none" stroke-width="1" fill-rule="evenodd">        <g id="Artboard" transform="translate(-325.000000, -789.000000)" fill-rule="nonzero">            <g id="Shape-5" transform="translate(325.048000, 789.000000)">                <path d="M-2.84217094e-14,49.425 L-2.84217094e-14,0 L49.425,0 L49.425,49.425 L45.628,49.41 L45.628,3.812 L3.811,3.812 L3.811,45.537 L18.845,45.537 C25.957,45.537 31.957,41.263 34.849,34.303 C37.649,27.565 35.991,15.928 30.747,11.041 C38.572,16.386 44.314,27.581 39.451,38.823 C36.613,45.387 30.673,49.426 22.653,49.426 L-2.84217094e-14,49.426 L-2.84217094e-14,49.425 Z M16.79,18.823 L16.79,37.846 L11.757,37.846 L11.757,13.325 L15.195,13.325 C19.998,13.325 25.249,13.856 26.864,19.461 C24.652,18.715 22.567,18.823 20.194,18.823 L16.79,18.823 L16.79,18.823 Z" id="Shape"/>            </g>        </g>    </g></g><g id="SvgjsG8316" featureKey="nameFeature-0" transform="matrix(0.7857974249239614,0,0,0.7857974249239614,93.42840515015207,2.784634225383323)" fill="#fff"><path d="M2.52 40 c-0.32 0 -0.52 -0.24 -0.52 -0.52 l0 -23.96 c0 -0.28 0.2 -0.52 0.52 -0.52 l9.08 0 c2.4 0 4.6 0.52 6.52 1.6 c1.92 1.04 3.4 2.52 4.48 4.44 c1.04 1.88 1.6 4.04 1.6 6.44 c0 2.44 -0.56 4.6 -1.64 6.48 c-1.08 1.92 -2.6 3.4 -4.56 4.44 c-1.92 1.08 -4.16 1.6 -6.6 1.6 l-8.88 0 z M8.2 34.4 l3.52 0 c1.16 0 2.24 -0.28 3.16 -0.84 c0.92 -0.6 1.68 -1.4 2.2 -2.44 s0.8 -2.24 0.8 -3.6 c0 -1.32 -0.28 -2.56 -0.84 -3.6 c-0.56 -1.08 -1.32 -1.88 -2.28 -2.48 c-0.96 -0.56 -2.08 -0.88 -3.28 -0.88 l-3.28 0 l0 13.84 z M28.2 40 l0 -23.96 c0 -1 0.2 -1.2 0.52 -1.2 l17.52 0 c0.28 0 0.52 0.2 0.52 0.48 l0 4.52 c0 0.28 -0.24 0.52 -0.52 0.52 l-11.84 0 l0 4.16 l7.48 0 c0.28 0 0.52 0.24 0.52 0.52 l0 4.48 c0 0.28 -0.24 0.52 -0.52 0.52 l-7.48 0 l0 4.28 l11.8 0 c0.28 0 0.52 0.24 0.52 0.52 l0 4.48 c0 0.28 -0.24 0.52 -0.52 0.52 l-17.48 0 c-0.32 0 -0.52 -0.24 -0.52 0.16 z M50.76 40 l0 -23.96 c0 -1 0.2 -1.2 0.52 -1.2 l17.52 0 c0.28 0 0.52 0.2 0.52 0.48 l0 4.52 c0 0.28 -0.24 0.52 -0.52 0.52 l-11.84 0 l0 4.16 l7.48 0 c0.28 0 0.52 0.24 0.52 0.52 l0 4.48 c0 0.28 -0.24 0.52 -0.52 0.52 l-7.48 0 l0 4.28 l11.8 0 c0.28 0 0.52 0.24 0.52 0.52 l0 4.48 c0 0.28 -0.24 0.52 -0.52 0.52 l-17.48 0 c-0.32 0 -0.52 -0.24 -0.52 0.16 z M73.8 40 c-0.28 0 -0.48 -0.24 -0.48 -0.52 l0 -23.96 c0 -0.28 0.2 -0.52 0.48 -0.52 l9.8 0 c3.04 0 5.44 0.76 7.12 2.32 c2.48 2.24 3.32 6.48 2.12 9.6 c-0.44 1.12 -1.2 2.16 -2.16 2.92 c-3.24 2.52 -7.28 2.28 -11.16 2.28 l0 7.36 c0 0.28 -0.24 0.52 -0.52 0.52 l-5.2 0 z M79.52 26.560000000000002 c0 0 5.04 0.56 6.8 -0.6 c0.68 -0.44 1.08 -1.52 1.08 -2.32 c-0.04 -0.88 -0.48 -1.8 -1.2 -2.36 c-0.76 -0.64 -2.64 -0.84 -3.6 -0.84 l-3.08 0.08 l0 6.04 z M93.55999999999999 40 c-0.16 0 -0.32 -0.08 -0.4 -0.24 c-0.12 -0.12 -0.12 -0.32 -0.08 -0.48 l9.32 -23.96 c0.08 -0.2 0.28 -0.32 0.48 -0.32 l5.36 0 c0.2 0 0.4 0.12 0.48 0.32 l9.16 23.96 c0.04 0.16 0.04 0.32 -0.08 0.48 c-0.08 0.16 -0.24 0.24 -0.4 0.24 l-5.56 0 c-0.2 0 -0.4 -0.12 -0.48 -0.32 l-1.48 -3.68 l-9 0.04 l-1.48 3.64 c-0.08 0.2 -0.28 0.32 -0.48 0.32 l-5.36 0 z M102.52 31 l5.76 0 l-2.88 -8.48 z M122.03999999999999 40 c-0.28 0 -0.52 -0.24 -0.52 -0.52 l0 -23.96 c0 -0.28 0.24 -0.52 0.52 -0.52 l5.2 0 c0.28 0 0.52 0.24 0.52 0.52 l0 7.08 l7.24 -7.44 c0.12 -0.08 0.24 -0.16 0.4 -0.16 l6.04 0 c0.2 0 0.4 0.12 0.48 0.28 c0.08 0.2 0.04 0.4 -0.08 0.56 l-8.08 8.64 l9 14.68 c0.08 0.08 0.12 0.2 0.12 0.32 c0 0.28 -0.24 0.52 -0.52 0.52 l-6.24 0 c-0.16 0 -0.32 -0.08 -0.4 -0.24 l-6.6 -11.16 l-1.36 1.2 l0 9.68 c0 0.28 -0.24 0.52 -0.52 0.52 l-5.2 0 z  M148.79999999999998 22.2 c-0.16 0 -0.28 -0.08 -0.4 -0.2 c-0.08 -0.12 -0.08 -0.28 -0.04 -0.4 l0.68 -3.28 c-1.32 -0.08 -2.16 -1.44 -2.16 -2.44 c0 -0.84 0.28 -1.52 0.8 -2.08 c0.52 -0.52 1.2 -0.8 1.96 -0.8 s1.4 0.24 1.92 0.76 s0.8 1.24 0.8 2.12 c0 0.36 -0.08 0.72 -0.2 1.08 c-0.08 0.28 -0.24 0.64 -0.44 1.04 l-2.12 3.96 c-0.12 0.16 -0.24 0.24 -0.44 0.24 l-0.36 0 z M167.04 40.24 c-1.92 0 -3.84 -0.36 -5.68 -1.08 c-1.84 -0.68 -3.48 -1.68 -4.84 -2.88 c-0.16 -0.16 -0.2 -0.4 -0.12 -0.6 l1.4 -4.76 c0.08 -0.16 0.2 -0.28 0.36 -0.28 c0.16 -0.04 0.32 0 0.44 0.12 c2.12 2 4.52 3.8 7.52 3.96 c0.8 0.04 1.68 0.08 2.44 -0.16 c2.36 -0.76 1.36 -3.16 -0.4 -3.88 c-0.6 -0.24 -1.44 -0.52 -2.52 -0.84 c-1.6 -0.44 -2.92 -0.92 -3.92 -1.4 c-1.08 -0.48 -2 -1.24 -2.8 -2.24 c-0.76 -1.04 -1.16 -2.4 -1.16 -4.04 c0 -1.56 0.4 -2.92 1.2 -4.08 s1.92 -2.08 3.32 -2.68 s3.04 -0.92 4.88 -0.92 c1.64 0 3.24 0.24 4.84 0.76 c1.56 0.48 2.96 1.16 4.2 1.96 c0.2 0.16 0.28 0.4 0.16 0.64 l-1.32 4.48 c-0.04 0.16 -0.16 0.24 -0.32 0.28 c-0.12 0.04 -0.28 0.04 -0.4 -0.04 c-1.8 -1.12 -3.6 -2.48 -5.72 -2.76 c-1.4 -0.2 -3.52 -0.12 -4 1.56 c-0.6 2.16 2.56 2.72 4 3.16 c1.6 0.48 2.92 0.96 3.96 1.44 c1.08 0.52 2.04 1.32 2.8 2.32 c0.8 1.04 1.2 2.44 1.2 4.12 c0 1.64 -0.44 3.04 -1.28 4.24 c-0.8 1.2 -1.96 2.08 -3.4 2.72 c-1.44 0.56 -3.04 0.88 -4.84 0.88 z M199.88 40 c-0.2 0 -0.4 -0.12 -0.48 -0.32 l-8 -24 c-0.08 -0.16 -0.04 -0.32 0.04 -0.48 c0.12 -0.12 0.28 -0.2 0.44 -0.2 l5.6 0 c0.2 0 0.4 0.12 0.48 0.36 l4.76 15.64 l4.8 -15.64 c0.08 -0.24 0.28 -0.36 0.48 -0.36 l5.36 0 c0.16 0 0.32 0.08 0.44 0.2 c0.08 0.16 0.12 0.32 0.04 0.48 l-8.12 24 c-0.08 0.2 -0.24 0.32 -0.48 0.32 l-5.36 0 z M218.4 40 c-0.28 0 -0.52 -0.24 -0.52 -0.52 l0 -23.96 c0 -0.28 0.24 -0.52 0.52 -0.52 l5.2 0 c0.28 0 0.52 0.24 0.52 0.52 l0 23.96 c0 0.28 -0.24 0.52 -0.52 0.52 l-5.2 0 z M238.8 40.24 c-1.92 0 -3.84 -0.36 -5.68 -1.08 c-1.84 -0.68 -3.48 -1.68 -4.84 -2.88 c-0.16 -0.16 -0.2 -0.4 -0.12 -0.6 l1.4 -4.76 c0.08 -0.16 0.2 -0.28 0.36 -0.28 c0.16 -0.04 0.32 0 0.44 0.12 c2.12 2 4.52 3.8 7.52 3.96 c0.8 0.04 1.68 0.08 2.44 -0.16 c2.36 -0.76 1.36 -3.16 -0.4 -3.88 c-0.6 -0.24 -1.44 -0.52 -2.52 -0.84 c-1.6 -0.44 -2.92 -0.92 -3.92 -1.4 c-1.08 -0.48 -2 -1.24 -2.8 -2.24 c-0.76 -1.04 -1.16 -2.4 -1.16 -4.04 c0 -1.56 0.4 -2.92 1.2 -4.08 s1.92 -2.08 3.32 -2.68 s3.04 -0.92 4.88 -0.92 c1.64 0 3.24 0.24 4.84 0.76 c1.56 0.48 2.96 1.16 4.2 1.96 c0.2 0.16 0.28 0.4 0.16 0.64 l-1.32 4.48 c-0.04 0.16 -0.16 0.24 -0.32 0.28 c-0.12 0.04 -0.28 0.04 -0.4 -0.04 c-1.8 -1.12 -3.6 -2.48 -5.72 -2.76 c-1.4 -0.2 -3.52 -0.12 -4 1.56 c-0.6 2.16 2.56 2.72 4 3.16 c1.6 0.48 2.92 0.96 3.96 1.44 c1.08 0.52 2.04 1.32 2.8 2.32 c0.8 1.04 1.2 2.44 1.2 4.12 c0 1.64 -0.44 3.04 -1.28 4.24 c-0.8 1.2 -1.96 2.08 -3.4 2.72 c-1.44 0.56 -3.04 0.88 -4.84 0.88 z M262.76 40 c-2.16 0 -3.72 -0.44 -5.36 -1.32 c-1.6 -0.88 -2.88 -2.12 -3.76 -3.76 c-0.88 -1.6 -1.32 -3.52 -1.32 -5.72 l0 -14.08 c0 -0.28 0.24 -0.48 0.52 -0.48 l5.2 0 c0.28 0 0.48 0.2 0.48 0.48 l0 14.08 c0 1.6 0.44 2.84 1.28 3.72 s1.6 1.32 3 1.32 s2.12 -0.44 2.92 -1.28 c0.8 -0.88 1.2 -2.16 1.2 -3.76 l0 -14.08 c0 -0.28 0.24 -0.48 0.52 -0.48 l5.2 0 c0.28 0 0.52 0.2 0.52 0.48 l0 14.08 c0 2.2 -0.44 4.12 -1.32 5.72 c-0.84 1.64 -2.12 2.88 -3.72 3.76 s-3.2 1.32 -5.36 1.32 z M277.67999999999995 40 c-0.16 0 -0.32 -0.08 -0.4 -0.24 c-0.12 -0.12 -0.12 -0.32 -0.08 -0.48 l9.32 -23.96 c0.08 -0.2 0.28 -0.32 0.48 -0.32 l5.36 0 c0.2 0 0.4 0.12 0.48 0.32 l9.16 23.96 c0.04 0.16 0.04 0.32 -0.08 0.48 c-0.08 0.16 -0.24 0.24 -0.4 0.24 l-5.56 0 c-0.2 0 -0.4 -0.12 -0.48 -0.32 l-1.48 -3.68 l-9 0.04 l-1.48 3.64 c-0.08 0.2 -0.28 0.32 -0.48 0.32 l-5.36 0 z M286.64 31 l5.76 0 l-2.88 -8.48 z M306.15999999999997 40 c-0.28 0 -0.52 -0.24 -0.52 -0.52 l0 -23.96 c0 -0.28 0.24 -0.52 0.52 -0.52 l5.2 0 c0.28 0 0.52 0.24 0.52 0.52 l0 18.72 l9 0 c0.28 0 0.52 0.24 0.52 0.52 l0 4.72 c0 0.28 -0.24 0.52 -0.52 0.52 l-14.72 0 z M336.08 40.24 c-1.92 0 -3.84 -0.36 -5.68 -1.08 c-1.84 -0.68 -3.48 -1.68 -4.84 -2.88 c-0.16 -0.16 -0.2 -0.4 -0.12 -0.6 l1.4 -4.76 c0.08 -0.16 0.2 -0.28 0.36 -0.28 c0.16 -0.04 0.32 0 0.44 0.12 c2.12 2 4.52 3.8 7.52 3.96 c0.8 0.04 1.68 0.08 2.44 -0.16 c2.36 -0.76 1.36 -3.16 -0.4 -3.88 c-0.6 -0.24 -1.44 -0.52 -2.52 -0.84 c-1.6 -0.44 -2.92 -0.92 -3.92 -1.4 c-1.08 -0.48 -2 -1.24 -2.8 -2.24 c-0.76 -1.04 -1.16 -2.4 -1.16 -4.04 c0 -1.56 0.4 -2.92 1.2 -4.08 s1.92 -2.08 3.32 -2.68 s3.04 -0.92 4.88 -0.92 c1.64 0 3.24 0.24 4.84 0.76 c1.56 0.48 2.96 1.16 4.2 1.96 c0.2 0.16 0.28 0.4 0.16 0.64 l-1.32 4.48 c-0.04 0.16 -0.16 0.24 -0.32 0.28 c-0.12 0.04 -0.28 0.04 -0.4 -0.04 c-1.8 -1.12 -3.6 -2.48 -5.72 -2.76 c-1.4 -0.2 -3.52 -0.12 -4 1.56 c-0.6 2.16 2.56 2.72 4 3.16 c1.6 0.48 2.92 0.96 3.96 1.44 c1.08 0.52 2.04 1.32 2.8 2.32 c0.8 1.04 1.2 2.44 1.2 4.12 c0 1.64 -0.44 3.04 -1.28 4.24 c-0.8 1.2 -1.96 2.08 -3.4 2.72 c-1.44 0.56 -3.04 0.88 -4.84 0.88 z"/></g><g id="SvgjsG8317" featureKey="sloganFeature-0" transform="matrix(0.5945788577428491,0,0,0.5945788577428491,94.56643259748985,49.41520244835814)" fill="#fff"><path d="M9.8354 7.711 l9.1766 12.19 l-2.9508 0 l-2.566 -3.3974 l-7.3197 0 l-2.5286 3.3974 l-2.9177 0 z M7.9362 14.1556 l3.7983 0 l-1.8992 -2.5322 z M44.793 10.8272 c0.95568 0.96942 1.4718 2.2114 1.4534 3.497 c-0.02289 1.5915 -0.78998 3.0436 -2.16 4.0892 c-1.4271 1.089 -3.4354 1.6646 -5.8082 1.6646 c-4.5288 0 -6.808 -0.0667 -6.8304 -0.067344 l-1.1387 -0.03414 l0 -11.373 l7.9691 0 c3.5728 0 5.5148 1.2092 6.5148 2.2236 z M38.278400000000005 17.7304 c3.8486 0 5.5962 -1.7276 5.6208 -3.4396 c0.009414 -0.66168 -0.25962 -1.2893 -0.77796 -1.8153 c-0.9689 -0.9829 -2.6888 -1.5241 -4.843 -1.5241 l-5.6214 0 l0 6.737 c1.09 0.018965 2.963 0.041992 5.6214 0.041992 z M65.547 10.9512 l-13.59 0.000019531 l0 2.1863 l9.0642 0.03375 l-0.0086328 2.3478 l-9.0556 -0.03375 l0 2.1782 l13.59 0 l0 2.3477 l-15.938 0 l0 -11.407 l15.938 0 l0 2.3476 z M83.079 8.662 l2.9056 0 l-9.017 12.023 l-9.018 -12.023 l2.9058 0 l6.1122 8.1492 z M104.307 10.9512 l-13.59 0.000019531 l0 2.1863 l9.0642 0.03375 l-0.0086328 2.3478 l-9.0556 -0.03375 l0 2.1782 l13.59 0 l0 2.3477 l-15.938 0 l0 -11.407 l15.938 0 l0 2.3476 z M109.997 17.619 l13.59 0 l0 2.3477 l-15.938 0 l0 -11.407 l2.3477 0 l0 9.0597 z M141.885 9.649 c0.91776 0.9099 0.9102 2.226 0.89856 4.2182 c-0.00091796 0.14832 -0.0016992 0.302 -0.0023438 0.46118 c-0.0044532 1.1823 -0.0075976 2.0366 -0.13172 2.757 c-0.10568 0.6142 -0.34974 1.4995 -1.2436 2.0954 c-1.1321 0.75466 -2.8232 0.77168 -6.5282 0.8087 c-0.57862 0.0057618 -1.1122 0.010078 -1.6046 0.010078 c-2.9354 0 -4.411 -0.15537 -5.3538 -1.0922 c-0.98198 -0.9757 -0.97648 -2.4126 -0.96838 -4.5876 c0.0090234 -2.4268 0.014512 -3.8916 1.2447 -4.801 c1.0614 -0.7845 2.6028 -0.80516 5.9798 -0.85054 l0.67396 -0.0092774 c4.2088 -0.060156 5.9508 -0.085136 7.0354 0.99024 z M140.451 13.854199999999999 c0.006543 -1.1448 0.013457 -2.3288 -0.20864 -2.5488 c-0.27556 -0.27322 -1.5123 -0.33638 -3.1584 -0.33638 c-0.67736 0 -1.4242 0.010723 -2.2018 0.021836 l-0.67606 0.0092774 c-2.4194 0.032442 -4.1674 0.055976 -4.625 0.39406 c-0.2888 0.21346 -0.2935 1.4744 -0.29898 2.9346 c-0.0050976 1.3559 -0.0099414 2.6366 0.28016 2.9248 c0.4554 0.45254 2.9138 0.42782 5.2914 0.40428 c2.7302 -0.027206 4.7028 -0.046954 5.258 -0.4171 c0.32686 -0.2179 0.33104 -1.3516 0.33692 -2.9208 c0.00052734 -0.16074 0.0014453 -0.316 0.0023632 -0.46588 z M158.404 8.475 c1.4873 0 3.7 0.91594 3.7 3.4388 s-2.0564 3.4388 -3.4388 3.4388 l-10.172 0 l-0.016738 4.5342 l-2.3476 -0.0087696 l0.037794 -10.227 l0 -1.1757 l0.0043164 0 l0 -0.0043164 l1.1738 0.0043164 l11.059 0 z M159.316 12.823599999999999 c0.21816 -0.12072 0.4413 -0.32304 0.44118 -0.90952 c0 -0.47164 -0.15957 -0.72696 -0.56948 -0.91072 c-0.3725 -0.16701 -0.77926 -0.18049 -0.78304 -0.18049 l-9.8895 0 l0 2.1822 l10.141 0 c0.1024 -0.0035352 0.40818 -0.04211 0.66022 -0.18152 z M181.387 10.9512 l-13.59 0.000019531 l0 2.1863 l9.0642 0.03375 l-0.0086328 2.3478 l-9.0556 -0.03375 l0 2.1782 l13.59 0 l0 2.3477 l-15.938 0 l0 -11.407 l15.938 0 l0 2.3476 z M199.05700000000002 17.557 l1.162 -0.017422 l0.034786 2.3242 l-1.1621 0.017402 c-0.18088 0.002754 -0.38542 0.0058984 -0.6087 0.0058984 c-1.614 0 -4.2026 -0.16008 -5.8378 -1.7712 c-0.72798 -0.71726 -1.1865 -1.629 -1.3698 -2.72 l-4.2054 0 l-0.016602 4.4896 l-2.3246 -0.0086328 l0.037402 -10.127 l0 -1.1635 l0.0043164 0 l0 -0.0043164 l1.1612 0.0043164 l10.951 0 c1.4728 0 3.6638 0.90678 3.6638 3.4048 c0 2.4982 -2.0362 3.405 -3.4048 3.405 l-3.4826 0 c0.12543 0.4252 0.32842 0.77924 0.61734 1.064 c1.1685 1.151 3.608 1.1146 4.7804 1.0969 z M187.0914 13.0714 l10.041 -0.000019531 c0.10148 -0.0035352 0.40426 -0.041718 0.6538 -0.17971 c0.21608 -0.11955 0.43686 -0.32006 0.43686 -0.90076 c0 -0.46692 -0.15799 -0.71972 -0.56382 -0.90166 c-0.36882 -0.16531 -0.77152 -0.17865 -0.77532 -0.17865 l-9.7922 0 l0 2.1608 z M216.3668 13.240400000000001 l11.807 0 l0 2.2697 l-2.1898 0 l0 1.0873 c0 2.4394 -1.9883 3.3248 -3.3248 3.3248 l-6.2924 -0.032304 c-1.4382 0 -3.5776 -0.88534 -3.5776 -3.3248 c0 -0.97478 0.31796 -1.7007 0.78448 -2.2218 c-0.46914 -0.51622 -0.78448 -1.2224 -0.78448 -2.158 c0 -2.4394 1.9883 -3.3248 3.3248 -3.3248 l9.6254 0 l0 2.2699 l-9.6155 0 c-0.099004 0.0033984 -0.3946 0.040684 -0.63826 0.17539 c-0.21096 0.11666 -0.42664 0.31246 -0.42664 0.87956 c0 0.45594 0.15434 0.70288 0.55062 0.88048 c0.3602 0.16152 0.75348 0.17447 0.75714 0.17447 z M223.714 16.5974 l0 -1.0873 l-7.59 0 c-0.099004 0.0033984 -0.39472 0.040684 -0.6384 0.17539 c-0.21096 0.11666 -0.42664 0.31246 -0.42664 0.87956 c0 0.45594 0.15434 0.70288 0.55062 0.88048 c0.3602 0.16152 0.75348 0.17447 0.75714 0.17447 l6.2824 0.032304 c0.099004 -0.0033984 0.3946 -0.040664 0.63826 -0.17537 c0.21096 -0.11666 0.42664 -0.31246 0.42664 -0.87956 z M256.347 10.9512 l-13.59 0.000019531 l0 2.1863 l9.0642 0.03375 l-0.0086328 2.3478 l-9.0556 -0.03375 l0 2.1782 l13.59 0 l0 2.3477 l-15.938 0 l0 -11.407 l15.938 0 l0 2.3476 z M273.279 8.593 l2.3476 0 l0 11.25 l-13.59 -7.098 l0 7.2556 l-2.3477 0 l0 -11.25 l13.59 7.098 l0 -7.2556 z M294.74999999999994 14.394400000000001 c-0.019883 1.3657 -0.00015625 4.4302 0.00023438 4.4608 l0.0077148 1.1699 l-7.8979 0 c-2.3734 0 -4.3588 -0.53114 -5.7416 -1.5357 c-1.3856 -1.0067 -2.1486 -2.467 -2.1486 -4.112 c0 -1.3641 0.51466 -2.5964 1.4885 -3.563 c1.3944 -1.3842 3.6104 -2.1058 6.4102 -2.0846 c1.7076 0.012559 6.6666 0.00013672 6.7164 0 l1.1622 -0.0030078 l0.005879 2.3246 l-1.1622 0.0030078 c-0.050098 0.00013672 -5.0206 0.012695 -6.7396 0 c-2.1376 -0.016875 -3.824 0.4851 -4.7556 1.4098 c-0.53204 0.52812 -0.80174 1.1717 -0.80174 1.9133 c0 2.0496 2.1326 3.323 5.5658 3.323 l5.5599 0 c-0.0024804 -0.63696 -0.0043164 -1.4395 -0.0024804 -2.1608 l-4.4771 0 l0 -2.3246 l6.8269 0 z M300.4538 20.02461 l-2.3246 0 l0 -11.295 l2.3246 0 l0 11.295 z M317.399 8.593 l2.3476 0 l0 11.25 l-13.59 -7.098 l0 7.2556 l-2.3477 0 l0 -11.25 l13.59 7.098 l0 -7.2556 z M339.02699999999993 10.9512 l-13.59 0.000019531 l0 2.1863 l9.0642 0.03375 l-0.0086328 2.3478 l-9.0556 -0.03375 l0 2.1782 l13.59 0 l0 2.3477 l-15.938 0 l0 -11.407 l15.938 0 l0 2.3476 z M358.3069999999999 10.9512 l-13.59 0.000019531 l0 2.1863 l9.0642 0.03375 l-0.0086328 2.3478 l-9.0556 -0.03375 l0 2.1782 l13.59 0 l0 2.3477 l-15.938 0 l0 -11.407 l15.938 0 l0 2.3476 z M375.9769999999999 17.557 l1.162 -0.017422 l0.034786 2.3242 l-1.1621 0.017402 c-0.18088 0.002754 -0.38542 0.0058984 -0.6087 0.0058984 c-1.614 0 -4.2026 -0.16008 -5.8378 -1.7712 c-0.72798 -0.71726 -1.1865 -1.629 -1.3698 -2.72 l-4.2054 0 l-0.016602 4.4896 l-2.3246 -0.0086328 l0.037402 -10.127 l0 -1.1635 l0.0043164 0 l0 -0.0043164 l1.1612 0.0043164 l10.951 0 c1.4728 0 3.6638 0.90678 3.6638 3.4048 c0 2.4982 -2.0362 3.405 -3.4048 3.405 l-3.4826 0 c0.12543 0.4252 0.32842 0.77924 0.61734 1.064 c1.1685 1.151 3.608 1.1146 4.7804 1.0969 z M364.0113999999999 13.0714 l10.041 -0.000019531 c0.10148 -0.0035352 0.40426 -0.041718 0.6538 -0.17971 c0.21608 -0.11955 0.43686 -0.32006 0.43686 -0.90076 c0 -0.46692 -0.15799 -0.71972 -0.56382 -0.90166 c-0.36882 -0.16531 -0.77152 -0.17865 -0.77532 -0.17865 l-9.7922 0 l0 2.1608 z"/></g>
			</g>
		</svg>
	